<svg width="53" height="24" fill="none" xmlns="http://www.w3.org/2000/svg">
  <path d="M47.8582 24c.8738 0 1.5821-.7164 1.5821-1.6 0-.8837-.7083-1.6-1.5821-1.6s-1.5821.7163-1.5821 1.6c0 .8836.7083 1.6 1.5821 1.6ZM49.0447 8.8V14c0 .64-.5538 1.2-1.1866 1.2-.6328 0-1.1866-.56-1.1866-1.2V2.4h-3.9552V14c0 2.88 2.294 5.2 5.1418 5.2s5.1418-2.32 5.1418-5.2V8.8h-3.9552ZM37.1791 14.0001c0 .64-.5537 1.2-1.1866 1.2-.6328 0-1.1865-.56-1.1865-1.2v-5.2h-3.9553V14c0 .64-.5537 1.2-1.1865 1.2-.6329 0-1.1866-.56-1.1866-1.2v-5.2h-3.9552v2.32c-.1582-.48-.3956-.88-.712-1.36l-2.4522-3.52 1.8985-2.72-3.2432-2.32-1.0284 1.52L17.1656.08 13.9224 2.4l2.6895 3.84-2.4522 3.52c-.4746.64-.7911 1.44-.9493 2.16-.7119-2.32-2.7686-3.92-5.3-3.92-3.085 0-5.5373 2.48-5.5373 5.6 0 .8.1582 1.6.4746 2.32-1.7403.96-2.8477 2.8-2.8477 4.88v1.6h3.9552v-1.6c0-.88.712-1.6 1.5821-1.6h2.3732c2.6104 0 4.8254-1.84 5.3791-4.32.7119 2.48 3.0059 4.32 5.6955 4.32 2.6104 0 4.9044-1.76 5.6164-4.16.4746 2.4 2.5313 4.16 5.0627 4.16 1.1865 0 2.294-.4 3.1642-1.12.8701.72 1.9776 1.12 3.1641 1.12 2.8478 0 5.1418-2.32 5.1418-5.2v-5.2h-3.9552V14Zm-29.2686 1.2h-.0791c-.791-.08-1.503-.72-1.503-1.6 0-.88.7119-1.6 1.582-1.6.8702 0 1.5821.72 1.5821 1.6 0 .88-.7119 1.6-1.582 1.6Zm11.0746 0c-1.1075 0-1.9776-.88-1.9776-2 0-.4.1582-.8.3955-1.12l1.5821-2.32 1.5821 2.32c.2373.32.3955.72.3955 1.12 0 1.12-.8702 2-1.9776 2Z" fill="#000"/>
</svg>